/videos/9267411f-b40a-ca50-ed45-007dc94930c3/hls1/main/136.ts

{"Protocol":0,"Id":"9267411fb40aca50ed45007dc94930c3","Path":"/data/tvshows/Top Gear/Season 22/Top Gear - S22E07 - Episode 7 HDTV-1080p.mkv","EncoderPath":null,"EncoderProtocol":null,"Type":0,"Container":"mov,mp4,m4a,3gp,3g2,mj2","Size":870538132,"Name":"Top Gear - S22E07 - Episode 7 HDTV-1080p","IsRemote":false,"ETag":"ee4962bc4ea51abb36e275f475317bc3","RunTimeTicks":36921750000,"ReadAtNativeFramerate":false,"IgnoreDts":false,"IgnoreIndex":false,"GenPtsInput":false,"SupportsTranscoding":true,"SupportsDirectStream":true,"SupportsDirectPlay":true,"IsInfiniteStream":false,"RequiresOpening":false,"OpenToken":null,"RequiresClosing":false,"LiveStreamId":null,"BufferMs":null,"RequiresLooping":false,"SupportsProbing":true,"VideoType":0,"IsoType":null,"Video3DFormat":null,"MediaStreams":[{"Codec":"subrip","CodecTag":null,"Language":"eng","ColorRange":null,"ColorSpace":null,"ColorTransfer":null,"ColorPrimaries":null,"DvVersionMajor":null,"DvVersionMinor":null,"DvProfile":null,"DvLevel":null,"RpuPresentFlag":null,"ElPresentFlag":null,"BlPresentFlag":null,"DvBlSignalCompatibilityId":null,"Comment":null,"TimeBase":"1/1000","CodecTimeBase":null,"Title":null,"VideoRange":null,"VideoRangeType":null,"VideoDoViTitle":null,"LocalizedUndefined":"Undefined","LocalizedDefault":"Default","LocalizedForced":"Forced","LocalizedExternal":"External","DisplayTitle":"English - SUBRIP - External","NalLengthSize":null,"IsInterlaced":false,"IsAVC":null,"ChannelLayout":null,"BitRate":null,"BitDepth":null,"RefFrames":null,"PacketLength":null,"Channels":null,"SampleRate":null,"IsDefault":false,"IsForced":false,"Height":null,"Width":null,"AverageFrameRate":null,"RealFrameRate":null,"Profile":null,"Type":2,"AspectRatio":null,"Index":0,"Score":null,"IsExternal":true,"DeliveryMethod":null,"DeliveryUrl":null,"IsExternalUrl":null,"IsTextSubtitleStream":true,"SupportsExternalStream":true,"Path":"/data/tvshows/Top Gear/Season 22/Top Gear - S22E07 - Episode 7 HDTV-1080p.en.srt","PixelFormat":null,"Level":0,"IsAnamorphic":null},{"Codec":"hevc","CodecTag":"hev1","Language":"und","ColorRange":null,"ColorSpace":null,"ColorTransfer":null,"ColorPrimaries":null,"DvVersionMajor":null,"DvVersionMinor":null,"DvProfile":null,"DvLevel":null,"RpuPresentFlag":null,"ElPresentFlag":null,"BlPresentFlag":null,"DvBlSignalCompatibilityId":null,"Comment":null,"TimeBase":"1/12800","CodecTimeBase":null,"Title":null,"VideoRange":"SDR","VideoRangeType":"SDR","VideoDoViTitle":null,"LocalizedUndefined":null,"LocalizedDefault":null,"LocalizedForced":null,"LocalizedExternal":null,"DisplayTitle":"1080p HEVC SDR","NalLengthSize":null,"IsInterlaced":false,"IsAVC":null,"ChannelLayout":null,"BitRate":1753143,"BitDepth":8,"RefFrames":1,"PacketLength":null,"Channels":null,"SampleRate":null,"IsDefault":true,"IsForced":false,"Height":1080,"Width":1920,"AverageFrameRate":25,"RealFrameRate":25,"Profile":"Main","Type":1,"AspectRatio":"16:9","Index":1,"Score":null,"IsExternal":false,"DeliveryMethod":null,"DeliveryUrl":null,"IsExternalUrl":null,"IsTextSubtitleStream":false,"SupportsExternalStream":false,"Path":null,"PixelFormat":"yuv420p","Level":120,"IsAnamorphic":null},{"Codec":"aac","CodecTag":"mp4a","Language":"eng","ColorRange":null,"ColorSpace":null,"ColorTransfer":null,"ColorPrimaries":null,"DvVersionMajor":null,"DvVersionMinor":null,"DvProfile":null,"DvLevel":null,"RpuPresentFlag":null,"ElPresentFlag":null,"BlPresentFlag":null,"DvBlSignalCompatibilityId":null,"Comment":null,"TimeBase":"1/44100","CodecTimeBase":null,"Title":null,"VideoRange":null,"VideoRangeType":null,"VideoDoViTitle":null,"LocalizedUndefined":null,"LocalizedDefault":null,"LocalizedForced":null,"LocalizedExternal":null,"DisplayTitle":"English - AAC - Stereo - Default","NalLengthSize":null,"IsInterlaced":false,"IsAVC":null,"ChannelLayout":"stereo","BitRate":128001,"BitDepth":null,"RefFrames":null,"PacketLength":null,"Channels":2,"SampleRate":44100,"IsDefault":true,"IsForced":false,"Height":null,"Width":null,"AverageFrameRate":null,"RealFrameRate":null,"Profile":"LC","Type":0,"AspectRatio":null,"Index":2,"Score":null,"IsExternal":false,"DeliveryMethod":null,"DeliveryUrl":null,"IsExternalUrl":null,"IsTextSubtitleStream":false,"SupportsExternalStream":false,"Path":null,"PixelFormat":null,"Level":0,"IsAnamorphic":null}],"MediaAttachments":[],"Formats":[],"Bitrate":1886233,"Timestamp":null,"RequiredHttpHeaders":{},"TranscodingUrl":null,"TranscodingSubProtocol":null,"TranscodingContainer":null,"AnalyzeDurationMs":null,"DefaultAudioStreamIndex":null,"DefaultSubtitleStreamIndex":null}

/usr/lib/jellyfin-ffmpeg/ffmpeg -analyzeduration 200M -ss 00:06:48.000 -f mov,mp4,m4a,3gp,3g2,mj2 -autorotate 0 -i file:"/data/tvshows/Top Gear/Season 22/Top Gear - S22E07 - Episode 7 HDTV-1080p.mkv" -map_metadata -1 -map_chapters -1 -threads 0 -map 0:0 -map 0:1 -map -0:s -codec:v:0 libx264 -preset veryfast -crf 23 -maxrate 4382858 -bufsize 8765716 -x264opts:0 subme=0:me_range=4:rc_lookahead=10:me=dia:no_chroma_me:8x8dct=0:partitions=none -force_key_frames:0 "expr:gte(t,408+n_forced*3)" -sc_threshold:v:0 0 -vf "setparams=color_primaries=bt709:color_trc=bt709:colorspace=bt709,scale=trunc(min(max(iw\,ih*a)\,min(1920\,1080*a))/2)*2:trunc(min(max(iw/a\,ih)\,min(1920/a\,1080))/2)*2,format=yuv420p" -start_at_zero -codec:a:0 copy -copyts -avoid_negative_ts disabled -max_muxing_queue_size 2048 -f hls -max_delay 5000000 -hls_time 3 -hls_segment_type mpegts -start_number 136 -hls_segment_filename "/data/transcodes/d7c88517e44a2d95dcabfc902f8b6de3%d.ts" -hls_playlist_type vod -hls_list_size 0 -y "/data/transcodes/d7c88517e44a2d95dcabfc902f8b6de3.m3u8"


ffmpeg version 5.1.3-Jellyfin Copyright (c) 2000-2022 the FFmpeg developers
  built with gcc 11 (Ubuntu 11.3.0-1ubuntu1~22.04.1)
  configuration: --prefix=/usr/lib/jellyfin-ffmpeg --target-os=linux --extra-libs=-lfftw3f --extra-version=Jellyfin --disable-doc --disable-ffplay --disable-ptx-compression --disable-static --disable-libxcb --disable-sdl2 --disable-xlib --enable-lto --enable-gpl --enable-version3 --enable-shared --enable-gmp --enable-gnutls --enable-chromaprint --enable-libdrm --enable-libass --enable-libfreetype --enable-libfribidi --enable-libfontconfig --enable-libbluray --enable-libmp3lame --enable-libopus --enable-libtheora --enable-libvorbis --enable-libopenmpt --enable-libdav1d --enable-libwebp --enable-libvpx --enable-libx264 --enable-libx265 --enable-libzvbi --enable-libzimg --enable-libfdk-aac --arch=amd64 --enable-libsvtav1 --enable-libshaderc --enable-libplacebo --enable-vulkan --enable-opencl --enable-vaapi --enable-amf --enable-libmfx --enable-ffnvcodec --enable-cuda --enable-cuda-llvm --enable-cuvid --enable-nvdec --enable-nvenc
  libavutil      57. 28.100 / 57. 28.100
  libavcodec     59. 37.100 / 59. 37.100
  libavformat    59. 27.100 / 59. 27.100
  libavdevice    59.  7.100 / 59.  7.100
  libavfilter     8. 44.100 /  8. 44.100
  libswscale      6.  7.100 /  6.  7.100
  libswresample   4.  7.100 /  4.  7.100
  libpostproc    56.  6.100 / 56.  6.100
Input #0, mov,mp4,m4a,3gp,3g2,mj2, from 'file:/data/tvshows/Top Gear/Season 22/Top Gear - S22E07 - Episode 7 HDTV-1080p.mkv':
  Metadata:
    major_brand     : isom
    minor_version   : 512
    compatible_brands: isomiso2mp41
    encoder         : Lavf58.29.100
  Duration: 01:01:32.18, start: 0.000000, bitrate: 1886 kb/s
  Stream #0:0[0x1](und): Video: hevc (Main) (hev1 / 0x31766568), yuv420p(tv, progressive), 1920x1080 [SAR 1:1 DAR 16:9], 1753 kb/s, 25 fps, 25 tbr, 12800 tbn (default)
    Metadata:
      handler_name    : VideoHandler
      vendor_id       : [0][0][0][0]
  Stream #0:1[0x2](eng): Audio: aac (LC) (mp4a / 0x6134706D), 44100 Hz, stereo, fltp, 128 kb/s (default)
    Metadata:
      handler_name    : SoundHandler
      vendor_id       : [0][0][0][0]
Stream mapping:
  Stream #0:0 -> #0:0 (hevc (native) -> h264 (libx264))
  Stream #0:1 -> #0:1 (copy)
Press [q] to stop, [?] for help
[libx264 @ 0x55848ab2f640] using SAR=1/1
[libx264 @ 0x55848ab2f640] using cpu capabilities: MMX2 SSE2Fast SSSE3 SSE4.2 AVX FMA3 BMI2 AVX2
[libx264 @ 0x55848ab2f640] profile Main, level 4.0, 4:2:0, 8-bit
[libx264 @ 0x55848ab2f640] 264 - core 163 r3060 5db6aa6 - H.264/MPEG-4 AVC codec - Copyleft 2003-2021 - http://www.videolan.org/x264.html - options: cabac=1 ref=1 deblock=1:0:0 analyse=0x1:0 me=dia subme=0 psy=1 psy_rd=1.00:0.00 mixed_ref=0 me_range=4 chroma_me=0 trellis=0 8x8dct=0 cqm=0 deadzone=21,11 fast_pskip=1 chroma_qp_offset=0 threads=6 lookahead_threads=1 sliced_threads=0 nr=0 decimate=1 interlaced=0 bluray_compat=0 constrained_intra=0 bframes=3 b_pyramid=2 b_adapt=1 b_bias=0 direct=1 weightb=1 open_gop=0 weightp=1 keyint=250 keyint_min=25 scenecut=0 intra_refresh=0 rc_lookahead=10 rc=crf mbtree=1 crf=23.0 qcomp=0.60 qpmin=0 qpmax=69 qpstep=4 vbv_maxrate=4382 vbv_bufsize=8765 crf_max=0.0 nal_hrd=none filler=0 ip_ratio=1.40 aq=1:1.00
Output #0, hls, to '/data/transcodes/d7c88517e44a2d95dcabfc902f8b6de3.m3u8':
  Metadata:
    encoder         : Lavf59.27.100
  Stream #0:0: Video: h264, yuv420p(tv, bt709, progressive), 1920x1080 [SAR 1:1 DAR 16:9], q=2-31, 25 fps, 90k tbn (default)
    Metadata:
      encoder         : Lavc59.37.100 libx264
    Side data:
      cpb: bitrate max/min/avg: 4382000/0/0 buffer size: 8765000 vbv_delay: N/A
  Stream #0:1: Audio: aac (LC) (mp4a / 0x6134706D), 44100 Hz, stereo, fltp, 128 kb/s (default)
frame=    1 fps=0.6 q=0.0 size=N/A time=00:00:00.00 bitrate=N/A speed=   0x    
frame=   21 fps=9.2 q=28.0 size=N/A time=00:00:00.81 bitrate=N/A speed=0.357x    
frame=   49 fps= 18 q=28.0 size=N/A time=00:00:01.95 bitrate=N/A speed=0.698x    
frame=   90 fps= 27 q=28.0 size=N/A time=00:00:03.57 bitrate=N/A speed=1.08x    
frame=  139 fps= 36 q=28.0 size=N/A time=00:00:05.54 bitrate=N/A speed=1.45x    
frame=  182 fps= 42 q=28.0 size=N/A time=00:00:07.26 bitrate=N/A speed=1.68x    
frame=  228 fps= 47 q=28.0 size=N/A time=00:00:09.10 bitrate=N/A speed=1.88x    
frame=  266 fps= 49 q=25.0 size=N/A time=00:00:10.61 bitrate=N/A speed=1.97x    
[hls @ 0x55848a926480] Opening '/data/transcodes/d7c88517e44a2d95dcabfc902f8b6de3136.ts' for writing
frame=  297 fps= 50 q=28.0 size=N/A time=00:00:11.86 bitrate=N/A speed=2.02x    
frame=  335 fps= 52 q=28.0 size=N/A time=00:00:13.37 bitrate=N/A speed=2.09x    
frame=  372 fps= 54 q=28.0 size=N/A time=00:00:14.86 bitrate=N/A speed=2.15x    
frame=  410 fps= 55 q=28.0 size=N/A time=00:00:16.37 bitrate=N/A speed=2.21x    
frame=  448 fps= 57 q=28.0 size=N/A time=00:00:17.90 bitrate=N/A speed=2.26x    
frame=  486 fps= 58 q=28.0 size=N/A time=00:00:19.41 bitrate=N/A speed=2.31x    
frame=  515 fps= 58 q=28.0 size=N/A time=00:00:20.57 bitrate=N/A speed= 2.3x    
[hls @ 0x55848a926480] Opening '/data/transcodes/d7c88517e44a2d95dcabfc902f8b6de3137.ts' for writing
frame=  533 fps= 57 q=28.0 size=N/A time=00:00:21.29 bitrate=N/A speed=2.26x    
frame=  562 fps= 56 q=29.0 size=N/A time=00:00:22.45 bitrate=N/A speed=2.26x    
frame=  587 fps= 56 q=29.0 size=N/A time=00:00:23.45 bitrate=N/A speed=2.24x    
frame=  618 fps= 56 q=28.0 size=N/A time=00:00:24.70 bitrate=N/A speed=2.25x    
frame=  642 fps= 56 q=30.0 size=N/A time=00:00:25.65 bitrate=N/A speed=2.23x    
frame=  676 fps= 56 q=28.0 size=N/A time=00:00:27.02 bitrate=N/A speed=2.25x    
frame=  708 fps= 56 q=28.0 size=N/A time=00:00:28.30 bitrate=N/A speed=2.26x    
frame=  743 fps= 57 q=28.0 size=N/A time=00:00:29.69 bitrate=N/A speed=2.27x    
[hls @ 0x55848a926480] Opening '/data/transcodes/d7c88517e44a2d95dcabfc902f8b6de3138.ts' for writing
frame=  771 fps= 56 q=28.0 size=N/A time=00:00:30.81 bitrate=N/A speed=2.23x    
frame=  809 fps= 56 q=28.0 size=N/A time=00:00:32.34 bitrate=N/A speed=2.26x    
frame=  847 fps= 57 q=28.0 size=N/A time=00:00:33.85 bitrate=N/A speed=2.28x    
frame=  890 fps= 58 q=28.0 size=N/A time=00:00:35.57 bitrate=N/A speed=2.32x    
frame=  938 fps= 59 q=28.0 size=N/A time=00:00:37.50 bitrate=N/A speed=2.36x    
frame=  983 fps= 60 q=28.0 size=N/A time=00:00:39.31 bitrate=N/A speed= 2.4x    
[hls @ 0x55848a926480] Opening '/data/transcodes/d7c88517e44a2d95dcabfc902f8b6de3139.ts' for writing
frame= 1021 fps= 60 q=28.0 size=N/A time=00:00:40.82 bitrate=N/A speed=2.42x    
frame= 1053 fps= 60 q=28.0 size=N/A time=00:00:42.09 bitrate=N/A speed=2.41x    
frame= 1087 fps= 61 q=28.0 size=N/A time=00:00:43.46 bitrate=N/A speed=2.42x    
frame= 1123 fps= 61 q=28.0 size=N/A time=00:00:44.90 bitrate=N/A speed=2.43x    
frame= 1168 fps= 62 q=28.0 size=N/A time=00:00:46.69 bitrate=N/A speed=2.46x    
frame= 1218 fps= 62 q=28.0 size=N/A time=00:00:48.69 bitrate=N/A speed= 2.5x    
frame= 1257 fps= 63 q=28.0 size=N/A time=00:00:50.27 bitrate=N/A speed=2.51x    
[hls @ 0x55848a926480] Opening '/data/transcodes/d7c88517e44a2d95dcabfc902f8b6de3140.ts' for writing
frame= 1283 fps= 63 q=28.0 size=N/A time=00:00:51.29 bitrate=N/A speed= 2.5x    
frame= 1318 fps= 63 q=28.0 size=N/A time=00:00:52.70 bitrate=N/A speed=2.51x    
frame= 1349 fps= 63 q=33.0 size=N/A time=00:00:53.93 bitrate=N/A speed= 2.5x    
frame= 1378 fps= 62 q=34.0 size=N/A time=00:00:55.10 bitrate=N/A speed= 2.5x    
frame= 1398 fps= 62 q=35.0 size=N/A time=00:00:55.89 bitrate=N/A speed=2.47x    
frame= 1423 fps= 62 q=35.0 size=N/A time=00:00:56.88 bitrate=N/A speed=2.46x    
frame= 1450 fps= 61 q=34.0 size=N/A time=00:00:57.98 bitrate=N/A speed=2.45x    
frame= 1480 fps= 61 q=29.0 size=N/A time=00:00:59.18 bitrate=N/A speed=2.45x    
frame= 1505 fps= 61 q=31.0 size=N/A time=00:01:00.18 bitrate=N/A speed=2.44x    
[hls @ 0x55848a926480] Opening '/data/transcodes/d7c88517e44a2d95dcabfc902f8b6de3141.ts' for writing
frame= 1521 fps= 59 q=31.0 size=N/A time=00:01:00.81 bitrate=N/A speed=2.37x    
frame= 1549 fps= 59 q=31.0 size=N/A time=00:01:01.95 bitrate=N/A speed=2.37x    
frame= 1592 fps= 60 q=28.0 size=N/A time=00:01:03.66 bitrate=N/A speed=2.38x    
frame= 1625 fps= 60 q=28.0 size=N/A time=00:01:04.96 bitrate=N/A speed=2.38x    
frame= 1654 fps= 60 q=28.0 size=N/A time=00:01:06.13 bitrate=N/A speed=2.38x    
frame= 1685 fps= 60 q=28.0 size=N/A time=00:01:07.38 bitrate=N/A speed=2.38x    
frame= 1719 fps= 60 q=28.0 size=N/A time=00:01:08.73 bitrate=N/A speed=2.38x    
frame= 1757 fps= 60 q=28.0 size=N/A time=00:01:10.26 bitrate=N/A speed= 2.4x    
[hls @ 0x55848a926480] Opening '/data/transcodes/d7c88517e44a2d95dcabfc902f8b6de3142.ts' for writing
frame= 1771 fps= 59 q=28.0 size=N/A time=00:01:10.82 bitrate=N/A speed=2.36x    
frame= 1797 fps= 59 q=28.0 size=N/A time=00:01:11.86 bitrate=N/A speed=2.35x    
frame= 1820 fps= 59 q=28.0 size=N/A time=00:01:12.77 bitrate=N/A speed=2.34x    
frame= 1849 fps= 59 q=28.0 size=N/A time=00:01:13.93 bitrate=N/A speed=2.34x    
frame= 1878 fps= 59 q=28.0 size=N/A time=00:01:15.09 bitrate=N/A speed=2.34x    
frame= 1909 fps= 59 q=28.0 size=N/A time=00:01:16.34 bitrate=N/A speed=2.34x    
frame= 1935 fps= 58 q=28.0 size=N/A time=00:01:17.36 bitrate=N/A speed=2.34x    
frame= 1970 fps= 59 q=28.0 size=N/A time=00:01:18.78 bitrate=N/A speed=2.34x    
frame= 2006 fps= 59 q=28.0 size=N/A time=00:01:20.22 bitrate=N/A speed=2.35x    
[hls @ 0x55848a926480] Opening '/data/transcodes/d7c88517e44a2d95dcabfc902f8b6de3143.ts' for writing
frame= 2021 fps= 57 q=28.0 size=N/A time=00:01:20.82 bitrate=N/A speed= 2.3x    
frame= 2051 fps= 58 q=28.0 size=N/A time=00:01:22.01 bitrate=N/A speed= 2.3x    
frame= 2081 fps= 58 q=28.0 size=N/A time=00:01:23.22 bitrate=N/A speed= 2.3x    
frame= 2111 fps= 58 q=28.0 size=N/A time=00:01:24.42 bitrate=N/A speed= 2.3x    
frame= 2142 fps= 58 q=28.0 size=N/A time=00:01:25.65 bitrate=N/A speed= 2.3x    
frame= 2170 fps= 57 q=28.0 size=N/A time=00:01:26.77 bitrate=N/A speed= 2.3x    
frame= 2199 fps= 57 q=28.0 size=N/A time=00:01:27.93 bitrate=N/A speed=2.29x    
frame= 2220 fps= 57 q=28.0 size=N/A time=00:01:28.76 bitrate=N/A speed=2.29x    
frame= 2241 fps= 57 q=28.0 size=N/A time=00:01:29.62 bitrate=N/A speed=2.28x    
frame= 2262 fps= 57 q=28.0 size=N/A time=00:01:30.46 bitrate=N/A speed=2.27x    
[hls @ 0x55848a926480] Opening '/data/transcodes/d7c88517e44a2d95dcabfc902f8b6de3144.ts' for writing
frame= 2271 fps= 56 q=28.0 size=N/A time=00:01:30.81 bitrate=N/A speed=2.24x    
frame= 2297 fps= 56 q=28.0 size=N/A time=00:01:31.85 bitrate=N/A speed=2.24x    
frame= 2330 fps= 56 q=28.0 size=N/A time=00:01:33.18 bitrate=N/A speed=2.24x    
frame= 2366 fps= 56 q=28.0 size=N/A time=00:01:34.62 bitrate=N/A speed=2.25x    
frame= 2391 fps= 56 q=28.0 size=N/A time=00:01:35.61 bitrate=N/A speed=2.24x    
frame= 2422 fps= 56 q=28.0 size=N/A time=00:01:36.85 bitrate=N/A speed=2.25x    
frame= 2444 fps= 56 q=28.0 size=N/A time=00:01:37.73 bitrate=N/A speed=2.24x    
frame= 2466 fps= 56 q=28.0 size=N/A time=00:01:38.61 bitrate=N/A speed=2.23x    
frame= 2490 fps= 56 q=28.0 size=N/A time=00:01:39.59 bitrate=N/A speed=2.23x    
frame= 2510 fps= 56 q=28.0 size=N/A time=00:01:40.37 bitrate=N/A speed=2.22x    
[hls @ 0x55848a926480] Opening '/data/transcodes/d7c88517e44a2d95dcabfc902f8b6de3145.ts' for writing
frame= 2533 fps= 55 q=28.0 size=N/A time=00:01:41.30 bitrate=N/A speed=2.22x    
frame= 2558 fps= 55 q=28.0 size=N/A time=00:01:42.30 bitrate=N/A speed=2.21x    
frame= 2601 fps= 56 q=28.0 size=N/A time=00:01:44.02 bitrate=N/A speed=2.23x    
frame= 2630 fps= 56 q=28.0 size=N/A time=00:01:45.18 bitrate=N/A speed=2.23x    
frame= 2668 fps= 56 q=28.0 size=N/A time=00:01:46.69 bitrate=N/A speed=2.24x    
frame= 2701 fps= 56 q=28.0 size=N/A time=00:01:48.01 bitrate=N/A speed=2.24x    
frame= 2739 fps= 56 q=28.0 size=N/A time=00:01:49.55 bitrate=N/A speed=2.25x    
[hls @ 0x55848a926480] Opening '/data/transcodes/d7c88517e44a2d95dcabfc902f8b6de3146.ts' for writing
frame= 2771 fps= 56 q=32.0 size=N/A time=00:01:50.82 bitrate=N/A speed=2.24x    
frame= 2806 fps= 56 q=34.0 size=N/A time=00:01:52.22 bitrate=N/A speed=2.25x    
frame= 2849 fps= 56 q=28.0 size=N/A time=00:01:53.94 bitrate=N/A speed=2.26x    
frame= 2897 fps= 57 q=28.0 size=N/A time=00:01:55.86 bitrate=N/A speed=2.27x    
frame= 2928 fps= 57 q=28.0 size=N/A time=00:01:57.09 bitrate=N/A speed=2.27x    
frame= 2969 fps= 57 q=28.0 size=N/A time=00:01:58.74 bitrate=N/A speed=2.28x    
frame= 3016 fps= 57 q=25.0 size=N/A time=00:02:00.62 bitrate=N/A speed=2.29x    
[hls @ 0x55848a926480] Opening '/data/transcodes/d7c88517e44a2d95dcabfc902f8b6de3147.ts' for writing
frame= 3041 fps= 57 q=28.0 size=N/A time=00:02:01.62 bitrate=N/A speed=2.29x    
frame= 3067 fps= 57 q=28.0 size=N/A time=00:02:02.67 bitrate=N/A speed=2.29x    
frame= 3088 fps= 57 q=28.0 size=N/A time=00:02:03.50 bitrate=N/A speed=2.28x    
frame= 3119 fps= 57 q=28.0 size=N/A time=00:02:04.73 bitrate=N/A speed=2.28x    
frame= 3145 fps= 57 q=32.0 size=N/A time=00:02:05.78 bitrate=N/A speed=2.28x    
frame= 3174 fps= 57 q=28.0 size=N/A time=00:02:06.94 bitrate=N/A speed=2.28x    
frame= 3217 fps= 57 q=28.0 size=N/A time=00:02:08.66 bitrate=N/A speed=2.29x    
frame= 3257 fps= 57 q=28.0 size=N/A time=00:02:10.26 bitrate=N/A speed=2.29x    
[hls @ 0x55848a926480] Opening '/data/transcodes/d7c88517e44a2d95dcabfc902f8b6de3148.ts' for writing
frame= 3271 fps= 57 q=28.0 size=N/A time=00:02:10.82 bitrate=N/A speed=2.28x    
frame= 3305 fps= 57 q=28.0 size=N/A time=00:02:12.19 bitrate=N/A speed=2.29x    
frame= 3344 fps= 57 q=28.0 size=N/A time=00:02:13.74 bitrate=N/A speed=2.29x    
frame= 3381 fps= 57 q=28.0 size=N/A time=00:02:15.20 bitrate=N/A speed= 2.3x    
frame= 3409 fps= 57 q=28.0 size=N/A time=00:02:16.34 bitrate=N/A speed= 2.3x    
frame= 3438 fps= 57 q=28.0 size=N/A time=00:02:17.50 bitrate=N/A speed= 2.3x    
frame= 3473 fps= 58 q=28.0 size=N/A time=00:02:18.90 bitrate=N/A speed= 2.3x    
frame= 3510 fps= 58 q=28.0 size=N/A time=00:02:20.38 bitrate=N/A speed=2.31x    
[hls @ 0x55848a926480] Opening '/data/transcodes/d7c88517e44a2d95dcabfc902f8b6de3149.ts' for writing
frame= 3537 fps= 58 q=28.0 size=N/A time=00:02:21.45 bitrate=N/A speed= 2.3x    
frame= 3571 fps= 58 q=28.0 size=N/A time=00:02:22.82 bitrate=N/A speed=2.31x    
frame= 3611 fps= 58 q=28.0 size=N/A time=00:02:24.42 bitrate=N/A speed=2.31x    
frame= 3645 fps= 58 q=28.0 size=N/A time=00:02:25.77 bitrate=N/A speed=2.32x    
frame= 3683 fps= 58 q=28.0 size=N/A time=00:02:27.30 bitrate=N/A speed=2.32x    
frame= 3719 fps= 58 q=28.0 size=N/A time=00:02:28.74 bitrate=N/A speed=2.33x    
frame= 3752 fps= 58 q=28.0 size=N/A time=00:02:30.07 bitrate=N/A speed=2.33x    
[hls @ 0x55848a926480] Opening '/data/transcodes/d7c88517e44a2d95dcabfc902f8b6de3150.ts' for writing
frame= 3773 fps= 58 q=28.0 size=N/A time=00:02:30.90 bitrate=N/A speed=2.32x    
frame= 3801 fps= 58 q=28.0 size=N/A time=00:02:32.02 bitrate=N/A speed=2.32x    
frame= 3828 fps= 58 q=28.0 size=N/A time=00:02:33.08 bitrate=N/A speed=2.32x    
frame= 3863 fps= 58 q=28.0 size=N/A time=00:02:34.50 bitrate=N/A speed=2.32x    
frame= 3900 fps= 58 q=28.0 size=N/A time=00:02:35.99 bitrate=N/A speed=2.33x    
frame= 3931 fps= 58 q=28.0 size=N/A time=00:02:37.22 bitrate=N/A speed=2.33x    
frame= 3967 fps= 58 q=28.0 size=N/A time=00:02:38.66 bitrate=N/A speed=2.33x    
frame= 4003 fps= 58 q=28.0 size=N/A time=00:02:40.10 bitrate=N/A speed=2.34x    
[hls @ 0x55848a926480] Opening '/data/transcodes/d7c88517e44a2d95dcabfc902f8b6de3151.ts' for writing
frame= 4021 fps= 58 q=28.0 size=N/A time=00:02:40.82 bitrate=N/A speed=2.32x    
frame= 4053 fps= 58 q=28.0 size=N/A time=00:02:42.09 bitrate=N/A speed=2.32x    
frame= 4085 fps= 58 q=28.0 size=N/A time=00:02:43.37 bitrate=N/A speed=2.32x    
frame= 4113 fps= 58 q=28.0 size=N/A time=00:02:44.49 bitrate=N/A speed=2.32x    
frame= 4139 fps= 58 q=28.0 size=N/A time=00:02:45.53 bitrate=N/A speed=2.32x    
frame= 4161 fps= 58 q=28.0 size=N/A time=00:02:46.41 bitrate=N/A speed=2.32x    
frame= 4187 fps= 58 q=28.0 size=N/A time=00:02:47.46 bitrate=N/A speed=2.31x    
frame= 4213 fps= 58 q=28.0 size=N/A time=00:02:48.50 bitrate=N/A speed=2.31x    
frame= 4240 fps= 58 q=28.0 size=N/A time=00:02:49.57 bitrate=N/A speed=2.31x    
frame= 4266 fps= 58 q=25.0 size=N/A time=00:02:50.62 bitrate=N/A speed=2.31x    
[hls @ 0x55848a926480] Opening '/data/transcodes/d7c88517e44a2d95dcabfc902f8b6de3152.ts' for writing
frame= 4277 fps= 57 q=28.0 size=N/A time=00:02:51.06 bitrate=N/A speed= 2.3x    
frame= 4304 fps= 57 q=28.0 size=N/A time=00:02:52.12 bitrate=N/A speed= 2.3x    
frame= 4337 fps= 57 q=28.0 size=N/A time=00:02:53.45 bitrate=N/A speed= 2.3x    
frame= 4369 fps= 58 q=28.0 size=N/A time=00:02:54.73 bitrate=N/A speed= 2.3x    
frame= 4397 fps= 58 q=28.0 size=N/A time=00:02:55.86 bitrate=N/A speed= 2.3x    
frame= 4424 fps= 57 q=28.0 size=N/A time=00:02:56.93 bitrate=N/A speed= 2.3x    
frame= 4453 fps= 57 q=28.0 size=N/A time=00:02:58.09 bitrate=N/A speed= 2.3x    
frame= 4488 fps= 58 q=28.0 size=N/A time=00:02:59.49 bitrate=N/A speed= 2.3x    
[hls @ 0x55848a926480] Opening '/data/transcodes/d7c88517e44a2d95dcabfc902f8b6de3153.ts' for writing
frame= 4521 fps= 57 q=28.0 size=N/A time=00:03:00.81 bitrate=N/A speed=2.29x    
frame= 4559 fps= 57 q=28.0 size=N/A time=00:03:02.34 bitrate=N/A speed=2.29x    
frame= 4583 fps= 57 q=28.0 size=N/A time=00:03:03.29 bitrate=N/A speed=2.29x    
frame= 4607 fps= 57 q=37.0 size=N/A time=00:03:04.25 bitrate=N/A speed=2.29x    
frame= 4631 fps= 57 q=39.0 size=N/A time=00:03:05.22 bitrate=N/A speed=2.28x    
frame= 4659 fps= 57 q=31.0 size=N/A time=00:03:06.34 bitrate=N/A speed=2.28x    
frame= 4700 fps= 57 q=28.0 size=N/A time=00:03:07.98 bitrate=N/A speed=2.29x    
frame= 4736 fps= 57 q=28.0 size=N/A time=00:03:09.42 bitrate=N/A speed=2.29x    
[hls @ 0x55848a926480] Opening '/data/transcodes/d7c88517e44a2d95dcabfc902f8b6de3154.ts' for writing
frame= 4771 fps= 57 q=28.0 size=N/A time=00:03:10.82 bitrate=N/A speed=2.28x    
frame= 4797 fps= 57 q=28.0 size=N/A time=00:03:11.86 bitrate=N/A speed=2.28x    
frame= 4822 fps= 57 q=28.0 size=N/A time=00:03:12.86 bitrate=N/A speed=2.27x    
frame= 4851 fps= 57 q=32.0 size=N/A time=00:03:14.02 bitrate=N/A speed=2.27x    
frame= 4879 fps= 57 q=34.0 size=N/A time=00:03:15.14 bitrate=N/A speed=2.27x    
frame= 4912 fps= 57 q=28.0 size=N/A time=00:03:16.46 bitrate=N/A speed=2.28x    
frame= 4939 fps= 57 q=28.0 size=N/A time=00:03:17.53 bitrate=N/A speed=2.27x    
frame= 4970 fps= 57 q=29.0 size=N/A time=00:03:18.78 bitrate=N/A speed=2.28x    
frame= 5001 fps= 57 q=30.0 size=N/A time=00:03:20.01 bitrate=N/A speed=2.28x    
[hls @ 0x55848a926480] Opening '/data/transcodes/d7c88517e44a2d95dcabfc902f8b6de3155.ts' for writing
frame= 5021 fps= 56 q=28.0 size=N/A time=00:03:20.82 bitrate=N/A speed=2.25x    
frame= 5047 fps= 56 q=30.0 size=N/A time=00:03:21.85 bitrate=N/A speed=2.24x    
frame= 5068 fps= 56 q=30.0 size=N/A time=00:03:22.71 bitrate=N/A speed=2.24x    
frame= 5092 fps= 56 q=32.0 size=N/A time=00:03:23.66 bitrate=N/A speed=2.24x    
frame= 5117 fps= 56 q=32.0 size=N/A time=00:03:24.66 bitrate=N/A speed=2.24x    
frame= 5142 fps= 56 q=31.0 size=N/A time=00:03:25.65 bitrate=N/A speed=2.23x    
frame= 5168 fps= 56 q=34.0 size=N/A time=00:03:26.70 bitrate=N/A speed=2.23x    
frame= 5195 fps= 56 q=28.0 size=N/A time=00:03:27.77 bitrate=N/A speed=2.23x    
frame= 5230 fps= 56 q=28.0 size=N/A time=00:03:29.18 bitrate=N/A speed=2.23x    
frame= 5263 fps= 56 q=28.0 size=N/A time=00:03:30.48 bitrate=N/A speed=2.24x    
[hls @ 0x55848a926480] Opening '/data/transcodes/d7c88517e44a2d95dcabfc902f8b6de3156.ts' for writing
frame= 5271 fps= 55 q=28.0 size=N/A time=00:03:30.81 bitrate=N/A speed=2.22x    

[q] command received. Exiting.

[hls @ 0x55848a926480] Opening '/data/transcodes/d7c88517e44a2d95dcabfc902f8b6de3157.ts' for writing
frame= 5305 fps= 55 q=-1.0 Lsize=N/A time=00:03:32.16 bitrate=N/A speed=2.19x    
video:85835kB audio:3443kB subtitle:0kB other streams:0kB global headers:0kB muxing overhead: unknown
[libx264 @ 0x55848ab2f640] frame I:22    Avg QP:18.34  size: 77147
[libx264 @ 0x55848ab2f640] frame P:2085  Avg QP:21.92  size: 27329
[libx264 @ 0x55848ab2f640] frame B:3198  Avg QP:24.28  size:  9136
[libx264 @ 0x55848ab2f640] consecutive B-frames: 15.2% 10.6%  8.3% 66.0%
[libx264 @ 0x55848ab2f640] mb I  I16..4: 48.1%  0.0% 51.9%
[libx264 @ 0x55848ab2f640] mb P  I16..4: 33.4%  0.0%  0.0%  P16..4: 35.2%  0.0%  0.0%  0.0%  0.0%    skip:31.4%
[libx264 @ 0x55848ab2f640] mb B  I16..4:  5.5%  0.0%  0.0%  B16..8: 21.8%  0.0%  0.0%  direct: 6.1%  skip:66.6%  L0:43.1% L1:47.1% BI: 9.8%
[libx264 @ 0x55848ab2f640] coded y,uvDC,uvAC intra: 19.0% 27.8% 5.3% inter: 8.2% 12.3% 0.2%
[libx264 @ 0x55848ab2f640] i16 v,h,dc,p: 26% 38% 15% 20%
[libx264 @ 0x55848ab2f640] i4 v,h,dc,ddl,ddr,vr,hd,vl,hu: 20% 31% 13%  6%  7%  5%  8%  4%  7%
[libx264 @ 0x55848ab2f640] i8c dc,h,v,p: 43% 32% 17%  7%
[libx264 @ 0x55848ab2f640] Weighted P-Frames: Y:4.1% UV:1.9%
[libx264 @ 0x55848ab2f640] kb/s:3313.62